<svg width="2526" height="2526" viewBox="0 0 2526 2526" fill="none" xmlns="http://www.w3.org/2000/svg">
<path d="M2170.67 1062.01C2170.67 1042.92 2163.1 1024.62 2149.62 1011.11C2136.14 997.603 2117.84 989.998 2098.76 989.964C2117.83 989.964 2136.12 982.388 2149.61 968.901C2163.1 955.414 2170.67 937.122 2170.67 918.048C2170.71 937.133 2178.31 955.426 2191.81 968.908C2205.32 982.391 2223.63 989.964 2242.72 989.964C2223.62 989.998 2205.31 997.599 2191.81 1011.1C2178.31 1024.61 2170.71 1042.91 2170.67 1062.01Z" stroke="#003181" stroke-width="8" stroke-linejoin="round"/>
<path d="M2026.4 719.79C2026.4 700.701 2018.72 682.392 2005.06 668.894C1991.4 655.394 1972.86 647.811 1953.54 647.811C1972.86 647.811 1991.4 640.228 2005.06 626.729C2018.72 613.231 2026.4 594.922 2026.4 575.832C2026.4 594.836 2034 613.068 2047.56 626.552C2061.11 640.038 2079.53 647.679 2098.76 647.811C2079.44 647.811 2060.9 655.394 2047.24 668.894C2033.57 682.392 2025.89 700.701 2025.89 719.79H2026.4Z" stroke="#003181" stroke-width="8" stroke-linejoin="round"/>
<path d="M412.322 1793.24C310.311 1728.13 240.315 1615.07 242.506 1488.51" stroke="#003181" stroke-width="8" stroke-linejoin="round"/>
<path d="M411.493 1793.79C465.793 1830.2 616.065 1903.02 782.753 1903.02" stroke="#003181" stroke-width="8"/>
<path d="M242.506 1488.51C242.506 1295.86 389.801 1137.78 578.121 1120.26C577.877 1114.78 577.268 1109.43 577.268 1103.95C577.268 969.597 686.339 860.678 820.732 860.678C885.98 860.678 945.142 886.479 988.722 928.22C1063.71 729.002 1255.56 586.739 1481.13 586.739C1771.82 586.739 2007.5 822.344 2007.5 1112.83V1113.08C2165.86 1164.56 2280.3 1313.15 2280.3 1488.51C2280.3 1593.83 2239.09 1689.52 2171.91 1760.33" stroke="#003181" stroke-width="8" stroke-linejoin="round"/>
<path d="M860.023 1498.12C835.682 1507.43 808.485 1512.08 778.433 1512.08C727.646 1512.08 689.18 1498.58 663.036 1471.57C636.891 1444.27 623.818 1404.35 623.818 1351.83C623.818 1299.92 637.492 1259.71 664.839 1231.2C692.186 1202.69 730.652 1188.44 780.236 1188.44C806.682 1188.44 831.775 1192.64 855.515 1201.04V1254.16C828.168 1248.15 805.78 1245.15 788.35 1245.15C757.097 1245.15 733.656 1253.41 718.03 1269.91C702.704 1286.42 695.04 1311.62 695.04 1345.53V1355.88C695.04 1389.5 702.553 1414.55 717.579 1431.06C732.605 1447.26 755.594 1455.37 786.547 1455.37C803.977 1455.37 828.469 1451.92 860.023 1445.01V1498.12Z" fill="#2074D5"/>
<path d="M1007.08 1501.74C994.459 1506.84 980.936 1509.39 966.511 1509.39C925.941 1509.39 905.657 1486.72 905.657 1441.41V1173.13H971.47V1436.01C971.47 1444.42 972.822 1450.42 975.526 1454.01C978.531 1457.31 983.34 1458.96 989.951 1458.96C994.158 1458.96 999.867 1458.52 1007.08 1457.61V1501.74Z" fill="#2074D5"/>
<path d="M1150.17 1512.99C1114.41 1512.99 1086.46 1502.33 1066.33 1481.03C1046.19 1459.42 1036.12 1429.4 1036.12 1391C1036.12 1352.89 1046.19 1323.18 1066.33 1301.87C1086.46 1280.27 1114.41 1269.46 1150.17 1269.46C1185.93 1269.46 1213.88 1280.27 1234.01 1301.87C1254.15 1323.18 1264.22 1352.89 1264.22 1391C1264.22 1429.4 1254.15 1459.42 1234.01 1481.03C1213.88 1502.33 1185.93 1512.99 1150.17 1512.99ZM1150.17 1462.56C1181.72 1462.56 1197.5 1438.71 1197.5 1391C1197.5 1343.58 1181.72 1319.88 1150.17 1319.88C1118.61 1319.88 1102.84 1343.58 1102.84 1391C1102.84 1438.71 1118.61 1462.56 1150.17 1462.56Z" fill="#2074D5"/>
<path d="M1468.75 1506.23L1462.44 1481.92C1435.69 1502.63 1407.75 1512.99 1378.6 1512.99C1358.16 1512.99 1342.23 1506.98 1330.82 1494.98C1319.4 1482.68 1313.68 1465.87 1313.68 1444.57V1276.21H1379.5V1426.11C1379.5 1450.42 1390.02 1462.56 1411.05 1462.56C1426.68 1462.56 1442.01 1457.76 1457.03 1448.17V1276.21H1522.85V1506.23H1468.75Z" fill="#2074D5"/>
<path d="M1741.29 1506.23L1735.88 1485.98C1717.26 1502.78 1695.17 1511.18 1669.62 1511.18C1650.68 1511.18 1634.01 1506.53 1619.58 1497.23C1605.16 1487.63 1593.89 1473.81 1585.77 1455.82C1577.96 1437.81 1574.06 1416.65 1574.06 1392.35C1574.06 1355.14 1582.92 1325.42 1600.65 1303.22C1618.38 1280.71 1641.82 1269.46 1670.97 1269.46C1694.72 1269.46 1715.3 1276.21 1732.73 1289.71V1173.13H1798.54V1506.23H1741.29ZM1691.26 1461.67C1705.68 1461.67 1719.5 1457.46 1732.73 1449.06V1330.22C1719.81 1322.72 1704.93 1318.97 1688.1 1318.97C1672.17 1318.97 1660.3 1324.98 1652.49 1336.98C1644.68 1348.69 1640.77 1366.54 1640.77 1390.55C1640.77 1414.55 1644.82 1432.41 1652.94 1444.11C1661.35 1455.82 1674.13 1461.67 1691.26 1461.67Z" fill="#2074D5"/>
<path d="M1141.86 1915.5C1117.52 1924.81 1090.32 1929.45 1060.27 1929.45C1009.48 1929.45 971.019 1915.96 944.874 1888.94C918.729 1861.63 905.657 1821.73 905.657 1769.21C905.657 1717.29 919.33 1677.09 946.677 1648.57C974.024 1620.06 1012.49 1605.81 1062.07 1605.81C1088.52 1605.81 1113.61 1610.01 1137.35 1618.42V1671.53C1110.01 1665.53 1087.62 1662.53 1070.19 1662.53C1038.93 1662.53 1015.49 1670.78 999.869 1687.29C984.542 1703.79 976.878 1729 976.878 1762.91V1773.26C976.878 1806.86 984.392 1831.93 999.418 1848.43C1014.44 1864.64 1037.43 1872.74 1068.39 1872.74C1085.82 1872.74 1110.31 1869.28 1141.86 1862.39V1915.5Z" fill="#2074D5"/>
<path d="M1288.92 1919.1C1276.3 1924.2 1262.77 1926.75 1248.35 1926.75C1207.78 1926.75 1187.5 1904.1 1187.5 1858.79V1590.51H1253.31V1853.38C1253.31 1861.78 1254.66 1867.79 1257.36 1871.39C1260.37 1874.69 1265.18 1876.34 1271.79 1876.34C1276 1876.34 1281.71 1875.89 1288.92 1874.99V1919.1Z" fill="#2074D5"/>
<path d="M1487.35 1923.61L1481.04 1899.3C1454.29 1920 1426.35 1930.35 1397.19 1930.35C1376.76 1930.35 1360.83 1924.35 1349.4 1912.36C1337.99 1900.04 1332.28 1883.24 1332.28 1861.93V1693.59H1398.1V1843.48C1398.1 1867.79 1408.62 1879.94 1429.64 1879.94C1445.28 1879.94 1460.61 1875.14 1475.62 1865.53V1693.59H1541.44V1923.61H1487.35Z" fill="#2074D5"/>
<path d="M1604.38 1923.61V1590.51H1670.18V1711.14C1678.89 1703.64 1689.12 1697.78 1700.84 1693.59C1712.56 1689.08 1724.13 1686.84 1735.54 1686.84C1764.7 1686.84 1787.68 1697.49 1804.51 1718.8C1821.64 1740.1 1830.21 1768.9 1830.21 1805.22C1830.21 1828.92 1826.3 1850.08 1818.48 1868.69C1810.68 1887.29 1799.4 1902 1784.68 1912.8C1769.95 1923.31 1752.98 1928.56 1733.75 1928.56C1719.92 1928.56 1707 1926.16 1694.98 1921.35C1682.96 1916.55 1672.89 1909.81 1664.77 1901.09L1658.91 1923.61H1604.38ZM1714.36 1736.35C1698.73 1736.35 1684.01 1740.4 1670.18 1748.5V1866.88C1683.4 1874.99 1698.14 1879.04 1714.36 1879.04C1731.18 1879.04 1743.51 1873.34 1751.33 1861.93C1759.43 1850.53 1763.5 1832.52 1763.5 1807.92C1763.5 1783.01 1759.58 1764.86 1751.77 1753.45C1743.96 1742.04 1731.49 1736.35 1714.36 1736.35Z" fill="#2074D5"/>
<path d="M1979.52 1860.14C1979.52 1854.13 1977.72 1849.48 1974.11 1846.19C1970.8 1842.88 1963.89 1839.28 1953.37 1835.38L1918.22 1821.42C1899.88 1814.23 1886.66 1805.37 1878.54 1794.87C1870.43 1784.36 1866.38 1771.01 1866.38 1754.8C1866.38 1734.39 1874.49 1718.04 1890.71 1705.74C1907.24 1693.14 1929.18 1686.84 1956.53 1686.84C1981.77 1686.84 2005.06 1691.79 2026.4 1701.69V1745.35C2003.56 1738.45 1982.23 1735 1962.39 1735C1950.06 1735 1941.05 1736.5 1935.34 1739.49C1929.63 1742.5 1926.78 1747.3 1926.78 1753.9C1926.78 1759 1928.43 1763.21 1931.74 1766.5C1935.34 1769.51 1942.7 1773.26 1953.83 1777.76L1988.09 1791.71C2006.71 1799.21 2019.93 1807.92 2027.75 1817.82C2035.87 1827.72 2039.92 1840.63 2039.92 1856.53C2039.92 1878.74 2031.36 1896.75 2014.23 1910.55C1997.39 1924.05 1975.16 1930.81 1947.51 1930.81C1916.56 1930.81 1889.21 1924.66 1865.47 1912.36V1868.69C1895.22 1878 1922.42 1882.64 1947.06 1882.64C1968.7 1882.64 1979.52 1875.14 1979.52 1860.14Z" fill="#2074D5"/>
<path d="M1000.13 497.539C1000.13 478.45 992.679 460.142 979.418 446.643C966.156 433.143 948.169 425.56 929.414 425.56C938.7 425.56 947.896 423.699 956.475 420.081C965.056 416.464 972.851 411.162 979.418 404.478C985.984 397.794 991.193 389.86 994.747 381.126C998.301 372.393 1000.13 363.033 1000.13 353.581C1000.13 363.033 1001.96 372.393 1005.51 381.126C1009.07 389.86 1014.28 397.794 1020.84 404.478C1027.41 411.162 1035.2 416.464 1043.78 420.081C1052.36 423.699 1061.56 425.56 1070.85 425.56C1052.09 425.56 1034.1 433.143 1020.84 446.643C1007.58 460.142 1000.13 478.45 1000.13 497.539Z" stroke="#003181" stroke-width="8" stroke-linejoin="round"/>
<path d="M398.472 1061.88C398.407 1042.82 390.854 1024.56 377.469 1011.1C364.085 997.646 345.959 990.09 327.063 990.09C346.002 990.09 364.165 982.5 377.557 968.989C390.948 955.479 398.472 937.154 398.472 918.048C398.456 927.503 400.288 936.868 403.863 945.607C407.438 954.347 412.686 962.29 419.307 968.982C425.929 975.673 433.792 980.982 442.449 984.604C451.107 988.225 460.386 990.09 469.758 990.09C450.851 990.09 432.72 997.667 419.351 1011.15C405.983 1024.64 398.472 1042.93 398.472 1062.01V1061.88Z" stroke="#003181" stroke-width="8" stroke-linejoin="round"/>
<path d="M725.347 659.682C725.347 664.354 725.852 668.142 726.736 670.92C727.746 673.698 729.009 676.729 730.777 680.012C731.408 681.023 731.661 682.033 731.661 682.917C731.661 684.18 730.903 685.442 729.261 686.705L721.306 692.009C720.169 692.767 719.033 693.145 718.023 693.145C716.76 693.145 715.497 692.514 714.234 691.378C712.466 689.483 710.951 687.463 709.688 685.442C708.425 683.296 707.163 680.896 705.774 677.992C695.924 689.61 683.548 695.418 668.647 695.418C658.04 695.418 649.579 692.388 643.392 686.326C637.204 680.265 634.047 672.183 634.047 662.081C634.047 651.347 637.835 642.634 645.538 636.067C653.241 629.501 663.47 626.218 676.477 626.218C680.77 626.218 685.19 626.596 689.862 627.228C694.535 627.859 699.333 628.869 704.384 630.006V620.788C704.384 611.19 702.364 604.498 698.449 600.583C694.408 596.668 687.589 594.774 677.866 594.774C673.446 594.774 668.9 595.279 664.228 596.416C659.555 597.552 655.009 598.941 650.59 600.709C648.569 601.593 647.054 602.098 646.17 602.351C645.286 602.603 644.654 602.73 644.149 602.73C642.381 602.73 641.497 601.467 641.497 598.815V592.627C641.497 590.607 641.75 589.092 642.381 588.208C643.013 587.324 644.149 586.44 645.917 585.556C650.337 583.283 655.641 581.389 661.828 579.873C668.016 578.232 674.583 577.474 681.528 577.474C696.555 577.474 707.541 580.883 714.613 587.702C721.558 594.522 725.094 604.876 725.094 618.767V659.682H725.347ZM674.077 678.876C678.245 678.876 682.538 678.118 687.084 676.603C691.63 675.088 695.671 672.309 699.081 668.521C701.101 666.122 702.617 663.47 703.374 660.439C704.132 657.408 704.637 653.746 704.637 649.453V644.149C700.975 643.265 697.06 642.508 693.019 642.002C688.978 641.497 685.064 641.245 681.149 641.245C672.688 641.245 666.501 642.886 662.333 646.296C658.166 649.705 656.146 654.504 656.146 660.818C656.146 666.753 657.661 671.173 660.818 674.204C663.849 677.361 668.269 678.876 674.077 678.876ZM775.479 692.514C773.206 692.514 771.691 692.135 770.681 691.251C769.671 690.494 768.787 688.726 768.029 686.326L738.353 588.713C737.596 586.187 737.217 584.546 737.217 583.662C737.217 581.641 738.227 580.505 740.248 580.505H752.623C755.022 580.505 756.664 580.883 757.548 581.767C758.558 582.525 759.316 584.293 760.073 586.692L781.288 670.289L800.988 586.692C801.619 584.167 802.377 582.525 803.387 581.767C804.397 581.01 806.165 580.505 808.438 580.505H818.541C820.94 580.505 822.582 580.883 823.592 581.767C824.602 582.525 825.486 584.293 825.991 586.692L845.943 671.299L867.789 586.692C868.547 584.167 869.431 582.525 870.315 581.767C871.325 581.01 872.967 580.505 875.24 580.505H886.984C889.004 580.505 890.141 581.515 890.141 583.662C890.141 584.293 890.015 584.924 889.888 585.682C889.762 586.44 889.509 587.45 889.004 588.839L858.571 686.453C857.813 688.978 856.929 690.62 855.919 691.378C854.909 692.135 853.267 692.64 851.121 692.64H840.261C837.861 692.64 836.22 692.261 835.21 691.378C834.199 690.494 833.315 688.852 832.81 686.326L813.237 604.876L793.79 686.2C793.159 688.726 792.401 690.367 791.391 691.251C790.38 692.135 788.613 692.514 786.34 692.514H775.479ZM937.748 695.924C931.182 695.924 924.615 695.166 918.301 693.651C911.987 692.135 907.062 690.494 903.779 688.599C901.759 687.463 900.369 686.2 899.864 685.064C899.359 683.927 899.107 682.664 899.107 681.528V675.088C899.107 672.436 900.117 671.173 902.011 671.173C902.769 671.173 903.526 671.299 904.284 671.552C905.042 671.804 906.178 672.309 907.441 672.814C911.735 674.709 916.407 676.224 921.332 677.234C926.383 678.244 931.308 678.75 936.359 678.75C944.315 678.75 950.502 677.361 954.796 674.582C959.089 671.804 961.362 667.763 961.362 662.586C961.362 659.05 960.226 656.146 957.953 653.746C955.68 651.347 951.386 649.2 945.199 647.18L926.888 641.497C917.67 638.593 910.851 634.299 906.683 628.617C902.516 623.061 900.369 616.873 900.369 610.306C900.369 605.003 901.506 600.33 903.779 596.289C906.052 592.249 909.083 588.713 912.871 585.935C916.659 583.03 920.953 580.883 926.004 579.368C931.055 577.853 936.359 577.221 941.915 577.221C944.693 577.221 947.598 577.348 950.376 577.726C953.28 578.105 955.932 578.61 958.584 579.115C961.11 579.747 963.509 580.378 965.782 581.136C968.055 581.894 969.823 582.651 971.086 583.409C972.854 584.419 974.116 585.429 974.874 586.566C975.632 587.576 976.011 588.965 976.011 590.733V596.668C976.011 599.32 975 600.709 973.106 600.709C972.096 600.709 970.454 600.204 968.308 599.194C961.11 595.911 953.028 594.269 944.062 594.269C936.864 594.269 931.182 595.405 927.267 597.805C923.352 600.204 921.332 603.866 921.332 609.044C921.332 612.579 922.595 615.61 925.12 618.009C927.646 620.409 932.318 622.808 939.011 624.955L956.942 630.637C966.035 633.542 972.601 637.583 976.516 642.76C980.43 647.938 982.325 653.873 982.325 660.439C982.325 665.869 981.188 670.794 979.041 675.088C976.768 679.381 973.738 683.169 969.823 686.2C965.908 689.357 961.236 691.63 955.806 693.272C950.123 695.04 944.188 695.924 937.748 695.924Z" fill="#2074D5"/>
<path d="M961.615 757.295C920.069 787.981 859.708 804.271 807.807 804.271C735.07 804.271 669.531 777.374 620.03 732.671C616.115 729.135 619.651 724.336 624.324 727.115C677.866 758.179 743.91 776.995 812.227 776.995C858.319 776.995 908.956 767.397 955.553 747.698C962.499 744.541 968.434 752.244 961.615 757.295Z" fill="#2074D5"/>
<path d="M978.915 737.596C973.611 730.777 943.809 734.312 930.298 735.954C926.257 736.459 925.625 732.923 929.287 730.272C953.028 713.603 992.048 718.401 996.594 723.958C1001.14 729.64 995.331 768.66 973.106 787.35C969.697 790.254 966.413 788.739 967.929 784.95C972.98 772.449 984.219 744.288 978.915 737.596Z" fill="#2074D5"/>
<path d="M591.884 2193.6C591.884 2189.87 591.084 2186.47 589.484 2183.4C588.017 2180.33 585.284 2177.2 581.284 2174C577.284 2170.67 571.55 2166.93 564.084 2162.8C553.684 2156.93 546.284 2151.13 541.884 2145.4C537.617 2139.67 535.484 2132.33 535.484 2123.4C535.484 2115.93 537.417 2109.47 541.284 2104C545.284 2098.53 550.817 2094.27 557.884 2091.2C564.95 2088.13 573.084 2086.6 582.284 2086.6C590.684 2086.6 598.284 2087.67 605.084 2089.8C611.884 2091.8 618.217 2094.53 624.084 2098L614.284 2113.6C609.484 2110.53 604.417 2108 599.084 2106C593.884 2104 587.75 2103 580.684 2103C572.817 2103 566.484 2104.73 561.684 2108.2C556.884 2111.53 554.484 2115.93 554.484 2121.4C554.484 2126.33 556.15 2130.73 559.484 2134.6C562.95 2138.33 569.284 2142.67 578.484 2147.6C587.284 2152.27 594.017 2156.87 598.684 2161.4C603.484 2165.8 606.75 2170.47 608.484 2175.4C610.35 2180.33 611.284 2185.8 611.284 2191.8C611.284 2199.93 609.15 2207 604.884 2213C600.75 2218.87 594.95 2223.4 587.484 2226.6C580.017 2229.8 571.35 2231.4 561.484 2231.4C551.884 2231.4 543.217 2230.13 535.484 2227.6C527.75 2224.93 520.95 2221.27 515.084 2216.6L527.484 2201.2C532.017 2205.33 537.284 2208.67 543.284 2211.2C549.417 2213.6 556.15 2214.8 563.484 2214.8C572.15 2214.8 579.017 2212.93 584.084 2209.2C589.284 2205.33 591.884 2200.13 591.884 2193.6ZM711.696 2155.4C711.696 2150.33 710.163 2146.27 707.096 2143.2C704.163 2140 700.296 2138.4 695.496 2138.4C690.829 2138.4 685.696 2140.07 680.096 2143.4C674.629 2146.73 669.629 2151.93 665.096 2159C660.563 2166.07 657.296 2175.2 655.296 2186.4L647.896 2229H629.896L655.896 2081H673.896L662.296 2146.8C666.429 2139.47 671.829 2133.6 678.496 2129.2C685.296 2124.8 692.429 2122.6 699.896 2122.6C709.096 2122.6 716.363 2125.4 721.696 2131C727.163 2136.47 729.896 2143.2 729.896 2151.2C729.896 2154.53 729.496 2158.73 728.696 2163.8L717.296 2229H699.296L710.296 2166.8C710.963 2163.6 711.363 2161.27 711.496 2159.8C711.629 2158.2 711.696 2156.73 711.696 2155.4ZM792.47 2231.4C783.67 2231.4 775.87 2229.53 769.07 2225.8C762.403 2221.93 757.136 2216.47 753.27 2209.4C749.536 2202.2 747.67 2193.73 747.67 2184C747.67 2172.93 749.936 2162.73 754.47 2153.4C759.136 2144.07 765.67 2136.6 774.07 2131C782.603 2125.4 792.536 2122.6 803.87 2122.6C811.603 2122.6 818.136 2124.07 823.47 2127C828.936 2129.93 833.136 2133.73 836.07 2138.4C839.003 2143.07 840.47 2148.07 840.47 2153.4C840.47 2160.73 838.736 2166.8 835.27 2171.6C831.803 2176.4 827.336 2180.13 821.87 2182.8C816.403 2185.33 810.47 2187.13 804.07 2188.2C797.803 2189.27 791.803 2189.8 786.07 2189.8C782.47 2189.8 778.87 2189.67 775.27 2189.4C771.803 2189 768.736 2188.6 766.07 2188.2C767.136 2197 770.27 2203.73 775.47 2208.4C780.67 2213.07 787.336 2215.4 795.47 2215.4C802.136 2215.4 808.07 2214.53 813.27 2212.8C818.47 2211.07 822.87 2209.33 826.47 2207.6L828.07 2223.6C824.07 2225.47 819.003 2227.27 812.87 2229C806.736 2230.6 799.936 2231.4 792.47 2231.4ZM802.47 2137.8C796.203 2137.8 790.536 2139.4 785.47 2142.6C780.403 2145.67 776.203 2149.93 772.87 2155.4C769.67 2160.73 767.536 2166.87 766.47 2173.8C769.536 2174.33 772.603 2174.8 775.67 2175.2C778.87 2175.47 782.336 2175.6 786.07 2175.6C797.27 2175.6 806.136 2174.07 812.67 2171C819.203 2167.8 822.47 2162.4 822.47 2154.8C822.47 2150.13 820.603 2146.13 816.87 2142.8C813.27 2139.47 808.47 2137.8 802.47 2137.8ZM867.385 2154.2C867.518 2153.53 867.585 2152.8 867.585 2152C867.718 2151.07 867.785 2150.13 867.785 2149.2C867.785 2145.47 866.718 2142.87 864.585 2141.4C862.452 2139.8 859.652 2139 856.185 2139L862.385 2125C869.452 2125 874.852 2126.73 878.585 2130.2C882.452 2133.53 884.385 2138.53 884.385 2145.2V2149.2C888.252 2139.73 893.185 2132.93 899.185 2128.8C905.318 2124.67 912.252 2122.6 919.985 2122.6C923.052 2122.6 925.652 2122.87 927.785 2123.4C930.052 2123.8 931.918 2124.33 933.385 2125L925.385 2142.6C923.785 2141.93 922.118 2141.47 920.385 2141.2C918.652 2140.93 916.652 2140.8 914.385 2140.8C909.585 2140.8 904.785 2142.53 899.985 2146C895.318 2149.33 891.052 2154.93 887.185 2162.8C883.452 2170.67 880.385 2181.47 877.985 2195.2L872.185 2229H854.185L867.385 2154.2ZM963.64 2107.2C959.907 2107.2 957.04 2106.13 955.04 2104C953.173 2101.73 952.24 2099.13 952.24 2096.2C952.24 2091.93 953.573 2088.53 956.24 2086C958.907 2083.33 962.24 2082 966.24 2082C969.973 2082 972.773 2083.13 974.64 2085.4C976.64 2087.53 977.64 2090.07 977.64 2093C977.64 2097.13 976.307 2100.53 973.64 2103.2C970.973 2105.87 967.64 2107.2 963.64 2107.2ZM950.24 2229H932.24L950.44 2125H968.44L950.24 2229ZM1079.81 2230C1072.61 2230 1067.08 2228.27 1063.21 2224.8C1059.48 2221.2 1057.61 2215.6 1057.61 2208C1053.75 2214.4 1048.88 2219.93 1043.01 2224.6C1037.15 2229.13 1030.35 2231.4 1022.61 2231.4C1015.95 2231.4 1009.68 2229.67 1003.81 2226.2C997.945 2222.6 993.212 2217.6 989.612 2211.2C986.145 2204.67 984.412 2196.93 984.412 2188C984.412 2177.73 985.945 2168.6 989.012 2160.6C992.078 2152.47 996.145 2145.6 1001.21 2140C1006.41 2134.4 1012.08 2130.13 1018.21 2127.2C1024.48 2124.13 1030.81 2122.6 1037.21 2122.6C1044.28 2122.6 1050.35 2124.33 1055.41 2127.8C1060.61 2131.27 1064.61 2135.53 1067.41 2140.6L1078.01 2081H1096.01L1074.81 2200.8C1074.68 2201.47 1074.55 2202.27 1074.41 2203.2C1074.41 2204 1074.41 2204.87 1074.41 2205.8C1074.41 2209.53 1075.48 2212.2 1077.61 2213.8C1079.75 2215.27 1082.55 2216 1086.01 2216L1079.81 2230ZM1027.41 2215.4C1032.48 2215.4 1037.28 2213.8 1041.81 2210.6C1046.48 2207.4 1050.48 2202.93 1053.81 2197.2C1057.28 2191.33 1059.68 2184.47 1061.01 2176.6L1064.61 2156C1061.95 2150.4 1058.35 2146.07 1053.81 2143C1049.28 2139.8 1044.28 2138.2 1038.81 2138.2C1032.68 2138.2 1026.81 2140.13 1021.21 2144C1015.75 2147.73 1011.28 2153.13 1007.81 2160.2C1004.48 2167.13 1002.81 2175.53 1002.81 2185.4C1002.81 2191.93 1003.95 2197.47 1006.21 2202C1008.61 2206.4 1011.68 2209.73 1015.41 2212C1019.28 2214.27 1023.28 2215.4 1027.41 2215.4ZM1103.92 2188C1103.92 2175.07 1106.72 2163.73 1112.32 2154C1118.05 2144.13 1125.92 2136.47 1135.92 2131C1145.92 2125.4 1157.32 2122.6 1170.12 2122.6C1177.99 2122.6 1184.85 2123.4 1190.72 2125C1196.72 2126.6 1201.65 2128.2 1205.52 2129.8L1192.92 2200.8C1192.79 2201.47 1192.65 2202.27 1192.52 2203.2C1192.52 2204 1192.52 2204.87 1192.52 2205.8C1192.52 2209.53 1193.59 2212.2 1195.72 2213.8C1197.85 2215.27 1200.65 2216 1204.12 2216L1197.92 2230C1190.72 2230 1185.19 2228.27 1181.32 2224.8C1177.59 2221.2 1175.72 2215.67 1175.72 2208.2C1171.99 2214.6 1167.25 2220.07 1161.52 2224.6C1155.92 2229.13 1149.32 2231.4 1141.72 2231.4C1135.19 2231.4 1129.05 2229.67 1123.32 2226.2C1117.59 2222.6 1112.92 2217.6 1109.32 2211.2C1105.72 2204.67 1103.92 2196.93 1103.92 2188ZM1185.72 2140.4C1183.19 2139.6 1180.52 2139 1177.72 2138.6C1175.05 2138.07 1171.79 2137.8 1167.92 2137.8C1158.72 2137.8 1150.72 2139.87 1143.92 2144C1137.12 2148.13 1131.79 2153.87 1127.92 2161.2C1124.19 2168.4 1122.32 2176.6 1122.32 2185.8C1122.32 2192.2 1123.45 2197.6 1125.72 2202C1128.12 2206.4 1131.19 2209.73 1134.92 2212C1138.65 2214.27 1142.52 2215.4 1146.52 2215.4C1151.99 2215.4 1156.99 2213.53 1161.52 2209.8C1166.05 2206.07 1169.92 2200.87 1173.12 2194.2C1176.45 2187.53 1178.85 2179.93 1180.32 2171.4L1185.72 2140.4ZM1287.68 2138.4C1283.01 2138.4 1277.95 2140.13 1272.48 2143.6C1267.01 2147.07 1261.95 2152.47 1257.28 2159.8C1252.75 2167 1249.48 2176.27 1247.48 2187.6L1240.28 2229H1222.28L1240.48 2125H1257.88L1253.48 2149C1257.61 2141 1263.15 2134.6 1270.08 2129.8C1277.15 2125 1284.55 2122.6 1292.28 2122.6C1301.35 2122.6 1308.61 2125.4 1314.08 2131C1319.55 2136.47 1322.28 2143.2 1322.28 2151.2C1322.28 2154.53 1321.88 2158.73 1321.08 2163.8L1309.68 2229H1291.68L1302.68 2166.8C1303.35 2163.6 1303.75 2161.27 1303.88 2159.8C1304.01 2158.2 1304.08 2156.73 1304.08 2155.4C1304.08 2150.2 1302.55 2146.07 1299.48 2143C1296.55 2139.93 1292.61 2138.4 1287.68 2138.4ZM1473.81 2103.2C1464.08 2103.2 1455.28 2106.13 1447.41 2112C1439.55 2117.73 1433.28 2125.67 1428.61 2135.8C1423.95 2145.8 1421.61 2157.33 1421.61 2170.4C1421.61 2184.8 1425.15 2195.8 1432.21 2203.4C1439.28 2211 1448.28 2214.8 1459.21 2214.8C1465.48 2214.8 1471.01 2213.93 1475.81 2212.2C1480.75 2210.47 1485.55 2208.4 1490.21 2206L1493.41 2223.2C1488.48 2225.47 1483.01 2227.4 1477.01 2229C1471.01 2230.6 1464.21 2231.4 1456.61 2231.4C1445.68 2231.4 1436.08 2229.07 1427.81 2224.4C1419.68 2219.73 1413.35 2213 1408.81 2204.2C1404.28 2195.27 1402.01 2184.47 1402.01 2171.8C1402.01 2159.8 1403.75 2148.67 1407.21 2138.4C1410.81 2128 1415.88 2118.93 1422.41 2111.2C1428.95 2103.47 1436.68 2097.47 1445.61 2093.2C1454.68 2088.8 1464.61 2086.6 1475.41 2086.6C1483.28 2086.6 1490.21 2087.67 1496.21 2089.8C1502.21 2091.93 1507.21 2094.13 1511.21 2096.4L1502.61 2112C1498.61 2109.47 1494.35 2107.4 1489.81 2105.8C1485.41 2104.07 1480.08 2103.2 1473.81 2103.2ZM1554.07 2231.4C1544.21 2231.4 1535.67 2229.4 1528.47 2225.4C1521.27 2221.4 1515.67 2215.87 1511.67 2208.8C1507.81 2201.6 1505.87 2193.47 1505.87 2184.4C1505.87 2172.8 1508.21 2162.33 1512.87 2153C1517.67 2143.67 1524.34 2136.27 1532.87 2130.8C1541.41 2125.33 1551.47 2122.6 1563.07 2122.6C1572.94 2122.6 1581.47 2124.6 1588.67 2128.6C1595.87 2132.6 1601.41 2138.13 1605.27 2145.2C1609.27 2152.27 1611.27 2160.4 1611.27 2169.6C1611.27 2181.07 1608.94 2191.53 1604.27 2201C1599.61 2210.33 1592.94 2217.73 1584.27 2223.2C1575.74 2228.67 1565.67 2231.4 1554.07 2231.4ZM1554.67 2215.4C1562.67 2215.4 1569.47 2213.47 1575.07 2209.6C1580.81 2205.6 1585.21 2200.27 1588.27 2193.6C1591.34 2186.93 1592.87 2179.47 1592.87 2171.2C1592.87 2165.07 1591.67 2159.6 1589.27 2154.8C1586.87 2149.87 1583.41 2145.93 1578.87 2143C1574.34 2140.07 1568.87 2138.6 1562.47 2138.6C1554.61 2138.6 1547.81 2140.6 1542.07 2144.6C1536.34 2148.47 1531.94 2153.73 1528.87 2160.4C1525.81 2167.07 1524.27 2174.53 1524.27 2182.8C1524.27 2188.8 1525.47 2194.27 1527.87 2199.2C1530.27 2204.13 1533.74 2208.07 1538.27 2211C1542.81 2213.93 1548.27 2215.4 1554.67 2215.4ZM1647.79 2193C1647.52 2194.73 1647.32 2196.33 1647.19 2197.8C1647.06 2199.13 1646.99 2200.33 1646.99 2201.4C1646.99 2205.93 1648.32 2209.47 1650.99 2212C1653.79 2214.53 1657.46 2215.8 1661.99 2215.8C1664.26 2215.8 1666.52 2215.53 1668.79 2215C1671.06 2214.47 1673.12 2213.73 1674.99 2212.8L1676.79 2227.4C1674.39 2228.6 1671.59 2229.53 1668.39 2230.2C1665.19 2231 1661.72 2231.4 1657.99 2231.4C1649.99 2231.4 1643.12 2229.13 1637.39 2224.6C1631.79 2219.93 1628.99 2212.93 1628.99 2203.6C1628.99 2200.13 1629.26 2196.73 1629.79 2193.4L1649.39 2081H1667.39L1647.79 2193ZM1710.49 2193C1710.22 2194.73 1710.02 2196.33 1709.89 2197.8C1709.75 2199.13 1709.69 2200.33 1709.69 2201.4C1709.69 2205.93 1711.02 2209.47 1713.69 2212C1716.49 2214.53 1720.15 2215.8 1724.69 2215.8C1726.95 2215.8 1729.22 2215.53 1731.49 2215C1733.75 2214.47 1735.82 2213.73 1737.69 2212.8L1739.49 2227.4C1737.09 2228.6 1734.29 2229.53 1731.09 2230.2C1727.89 2231 1724.42 2231.4 1720.69 2231.4C1712.69 2231.4 1705.82 2229.13 1700.09 2224.6C1694.49 2219.93 1691.69 2212.93 1691.69 2203.6C1691.69 2200.13 1691.95 2196.73 1692.49 2193.4L1712.09 2081H1730.09L1710.49 2193ZM1793.06 2231.4C1784.26 2231.4 1776.46 2229.53 1769.66 2225.8C1762.99 2221.93 1757.72 2216.47 1753.86 2209.4C1750.12 2202.2 1748.26 2193.73 1748.26 2184C1748.26 2172.93 1750.52 2162.73 1755.06 2153.4C1759.72 2144.07 1766.26 2136.6 1774.66 2131C1783.19 2125.4 1793.12 2122.6 1804.46 2122.6C1812.19 2122.6 1818.72 2124.07 1824.06 2127C1829.52 2129.93 1833.72 2133.73 1836.66 2138.4C1839.59 2143.07 1841.06 2148.07 1841.06 2153.4C1841.06 2160.73 1839.32 2166.8 1835.86 2171.6C1832.39 2176.4 1827.92 2180.13 1822.46 2182.8C1816.99 2185.33 1811.06 2187.13 1804.66 2188.2C1798.39 2189.27 1792.39 2189.8 1786.66 2189.8C1783.06 2189.8 1779.46 2189.67 1775.86 2189.4C1772.39 2189 1769.32 2188.6 1766.66 2188.2C1767.72 2197 1770.86 2203.73 1776.06 2208.4C1781.26 2213.07 1787.92 2215.4 1796.06 2215.4C1802.72 2215.4 1808.66 2214.53 1813.86 2212.8C1819.06 2211.07 1823.46 2209.33 1827.06 2207.6L1828.66 2223.6C1824.66 2225.47 1819.59 2227.27 1813.46 2229C1807.32 2230.6 1800.52 2231.4 1793.06 2231.4ZM1803.06 2137.8C1796.79 2137.8 1791.12 2139.4 1786.06 2142.6C1780.99 2145.67 1776.79 2149.93 1773.46 2155.4C1770.26 2160.73 1768.12 2166.87 1767.06 2173.8C1770.12 2174.33 1773.19 2174.8 1776.26 2175.2C1779.46 2175.47 1782.92 2175.6 1786.66 2175.6C1797.86 2175.6 1806.72 2174.07 1813.26 2171C1819.79 2167.8 1823.06 2162.4 1823.06 2154.8C1823.06 2150.13 1821.19 2146.13 1817.46 2142.8C1813.86 2139.47 1809.06 2137.8 1803.06 2137.8ZM1917.77 2122.6C1925.64 2122.6 1932.57 2123.4 1938.57 2125C1944.57 2126.6 1949.5 2128.2 1953.37 2129.8L1935.97 2230.2C1934.37 2239.4 1931.9 2246.93 1928.57 2252.8C1925.37 2258.67 1921.57 2263.2 1917.17 2266.4C1912.9 2269.73 1908.37 2272.07 1903.57 2273.4C1898.77 2274.73 1894.04 2275.4 1889.37 2275.4C1880.3 2275.4 1872.57 2273.53 1866.17 2269.8C1859.9 2266.07 1854.77 2261.73 1850.77 2256.8L1864.77 2246.4C1871.3 2255.33 1879.9 2259.8 1890.57 2259.8C1897.24 2259.8 1903.1 2257.33 1908.17 2252.4C1913.24 2247.47 1916.84 2239.07 1918.97 2227.2L1922.37 2207.6C1918.64 2213.6 1913.97 2218.67 1908.37 2222.8C1902.9 2226.93 1896.7 2229 1889.77 2229C1883.37 2229 1877.24 2227.4 1871.37 2224.2C1865.64 2221 1860.9 2216.33 1857.17 2210.2C1853.57 2204.07 1851.77 2196.53 1851.77 2187.6C1851.77 2174.67 1854.64 2163.33 1860.37 2153.6C1866.1 2143.87 1873.97 2136.27 1883.97 2130.8C1893.97 2125.33 1905.24 2122.6 1917.77 2122.6ZM1870.17 2185.6C1870.17 2191.6 1871.3 2196.67 1873.57 2200.8C1875.97 2204.8 1879.04 2207.87 1882.77 2210C1886.5 2212 1890.44 2213 1894.57 2213C1899.64 2213 1904.44 2211.2 1908.97 2207.6C1913.5 2204 1917.44 2198.93 1920.77 2192.4C1924.24 2185.87 1926.77 2178.2 1928.37 2169.4L1933.57 2140.4C1931.04 2139.6 1928.37 2139 1925.57 2138.6C1922.77 2138.07 1919.5 2137.8 1915.77 2137.8C1906.84 2137.8 1898.9 2139.93 1891.97 2144.2C1885.17 2148.33 1879.84 2154 1875.97 2161.2C1872.1 2168.4 1870.17 2176.53 1870.17 2185.6ZM2012 2231.4C2003.2 2231.4 1995.4 2229.53 1988.6 2225.8C1981.93 2221.93 1976.67 2216.47 1972.8 2209.4C1969.07 2202.2 1967.2 2193.73 1967.2 2184C1967.2 2172.93 1969.47 2162.73 1974 2153.4C1978.67 2144.07 1985.2 2136.6 1993.6 2131C2002.13 2125.4 2012.07 2122.6 2023.4 2122.6C2031.13 2122.6 2037.67 2124.07 2043 2127C2048.47 2129.93 2052.67 2133.73 2055.6 2138.4C2058.53 2143.07 2060 2148.07 2060 2153.4C2060 2160.73 2058.27 2166.8 2054.8 2171.6C2051.33 2176.4 2046.87 2180.13 2041.4 2182.8C2035.93 2185.33 2030 2187.13 2023.6 2188.2C2017.33 2189.27 2011.33 2189.8 2005.6 2189.8C2002 2189.8 1998.4 2189.67 1994.8 2189.4C1991.33 2189 1988.27 2188.6 1985.6 2188.2C1986.67 2197 1989.8 2203.73 1995 2208.4C2000.2 2213.07 2006.87 2215.4 2015 2215.4C2021.67 2215.4 2027.6 2214.53 2032.8 2212.8C2038 2211.07 2042.4 2209.33 2046 2207.6L2047.6 2223.6C2043.6 2225.47 2038.53 2227.27 2032.4 2229C2026.27 2230.6 2019.47 2231.4 2012 2231.4ZM2022 2137.8C2015.73 2137.8 2010.07 2139.4 2005 2142.6C1999.93 2145.67 1995.73 2149.93 1992.4 2155.4C1989.2 2160.73 1987.07 2166.87 1986 2173.8C1989.07 2174.33 1992.13 2174.8 1995.2 2175.2C1998.4 2175.47 2001.87 2175.6 2005.6 2175.6C2016.8 2175.6 2025.67 2174.07 2032.2 2171C2038.73 2167.8 2042 2162.4 2042 2154.8C2042 2150.13 2040.13 2146.13 2036.4 2142.8C2032.8 2139.47 2028 2137.8 2022 2137.8Z" fill="#003181"/>
</svg>
