<svg width="2526" height="2526" viewBox="0 0 2526 2526" fill="none" xmlns="http://www.w3.org/2000/svg">
<g clip-path="url(#clip0_1085_1210)">
<rect width="2525.58" height="2525.58" fill="white"/>
<path d="M2170.67 1062C2170.67 1042.92 2163.1 1024.62 2149.62 1011.11C2136.14 997.601 2117.84 989.997 2098.76 989.963C2117.83 989.963 2136.12 982.386 2149.61 968.899C2163.1 955.413 2170.67 937.12 2170.67 918.047C2170.71 937.131 2178.31 955.424 2191.81 968.907C2205.32 982.39 2223.64 989.963 2242.72 989.963C2223.62 989.997 2205.31 997.598 2191.81 1011.1C2178.31 1024.6 2170.71 1042.91 2170.67 1062Z" stroke="#003181" stroke-width="8" stroke-linejoin="round"/>
<path d="M2026.4 719.79C2026.4 700.701 2018.72 682.391 2005.06 668.893C1991.4 655.394 1972.86 647.811 1953.54 647.811C1972.86 647.811 1991.4 640.228 2005.06 626.729C2018.72 613.231 2026.4 594.922 2026.4 575.832C2026.4 594.836 2034 613.068 2047.56 626.552C2061.11 640.037 2079.53 647.678 2098.76 647.811C2079.44 647.811 2060.9 655.394 2047.24 668.893C2033.57 682.391 2025.9 700.701 2025.9 719.79H2026.4Z" stroke="#003181" stroke-width="8" stroke-linejoin="round"/>
<path d="M412.323 1793.24C310.311 1728.13 240.316 1615.07 242.507 1488.52" stroke="#003181" stroke-width="8" stroke-linejoin="round"/>
<path d="M411.492 1793.79C465.792 1830.2 616.064 1903.02 782.753 1903.02" stroke="#003181" stroke-width="8"/>
<path d="M242.506 1488.51C242.506 1295.86 389.8 1137.78 578.12 1120.26C577.876 1114.78 577.268 1109.43 577.268 1103.95C577.268 969.596 686.339 860.678 820.731 860.678C885.98 860.678 945.141 886.478 988.722 928.219C1063.71 729.002 1255.56 586.738 1481.13 586.738C1771.82 586.738 2007.5 822.343 2007.5 1112.83V1113.08C2165.86 1164.55 2280.3 1313.15 2280.3 1488.51C2280.3 1593.83 2239.09 1689.52 2171.91 1760.33" stroke="#003181" stroke-width="8" stroke-linejoin="round"/>
<path d="M860.023 1498.12C835.682 1507.43 808.485 1512.08 778.433 1512.08C727.646 1512.08 689.18 1498.58 663.036 1471.57C636.891 1444.27 623.818 1404.35 623.818 1351.83C623.818 1299.92 637.492 1259.71 664.839 1231.2C692.186 1202.69 730.652 1188.44 780.236 1188.44C806.682 1188.44 831.775 1192.64 855.515 1201.04V1254.16C828.168 1248.15 805.78 1245.15 788.35 1245.15C757.097 1245.15 733.656 1253.41 718.03 1269.91C702.704 1286.42 695.04 1311.62 695.04 1345.53V1355.88C695.04 1389.5 702.553 1414.55 717.579 1431.06C732.605 1447.26 755.594 1455.37 786.547 1455.37C803.977 1455.37 828.469 1451.92 860.023 1445.01V1498.12Z" fill="#2074D5"/>
<path d="M1007.08 1501.74C994.458 1506.84 980.935 1509.39 966.51 1509.39C925.94 1509.39 905.656 1486.72 905.656 1441.41V1173.13H971.469V1436.01C971.469 1444.42 972.822 1450.42 975.525 1454.02C978.531 1457.31 983.339 1458.97 989.95 1458.97C994.158 1458.97 999.867 1458.52 1007.08 1457.61V1501.74Z" fill="#2074D5"/>
<path d="M1150.17 1512.99C1114.41 1512.99 1086.46 1502.33 1066.33 1481.02C1046.19 1459.42 1036.12 1429.4 1036.12 1391C1036.12 1352.89 1046.19 1323.18 1066.33 1301.87C1086.46 1280.27 1114.41 1269.46 1150.17 1269.46C1185.93 1269.46 1213.88 1280.27 1234.01 1301.87C1254.15 1323.18 1264.22 1352.89 1264.22 1391C1264.22 1429.4 1254.15 1459.42 1234.01 1481.02C1213.88 1502.33 1185.93 1512.99 1150.17 1512.99ZM1150.17 1462.56C1181.72 1462.56 1197.5 1438.71 1197.5 1391C1197.5 1343.58 1181.72 1319.88 1150.17 1319.88C1118.61 1319.88 1102.84 1343.58 1102.84 1391C1102.84 1438.71 1118.61 1462.56 1150.17 1462.56Z" fill="#2074D5"/>
<path d="M1468.75 1506.23L1462.44 1481.92C1435.69 1502.63 1407.75 1512.99 1378.6 1512.99C1358.16 1512.99 1342.23 1506.98 1330.82 1494.98C1319.4 1482.68 1313.68 1465.87 1313.68 1444.57V1276.21H1379.5V1426.11C1379.5 1450.42 1390.02 1462.56 1411.06 1462.56C1426.68 1462.56 1442.01 1457.77 1457.03 1448.17V1276.21H1522.85V1506.23H1468.75Z" fill="#2074D5"/>
<path d="M1741.29 1506.23L1735.88 1485.98C1717.26 1502.78 1695.17 1511.18 1669.62 1511.18C1650.68 1511.18 1634.01 1506.53 1619.58 1497.23C1605.16 1487.63 1593.89 1473.82 1585.77 1455.82C1577.96 1437.81 1574.05 1416.65 1574.05 1392.35C1574.05 1355.14 1582.92 1325.43 1600.65 1303.23C1618.38 1280.71 1641.82 1269.46 1670.97 1269.46C1694.71 1269.46 1715.3 1276.21 1732.72 1289.71V1173.13H1798.54V1506.23H1741.29ZM1691.25 1461.67C1705.68 1461.67 1719.5 1457.46 1732.72 1449.07V1330.22C1719.81 1322.72 1704.93 1318.97 1688.1 1318.97C1672.17 1318.97 1660.3 1324.98 1652.49 1336.98C1644.68 1348.69 1640.77 1366.54 1640.77 1390.55C1640.77 1414.55 1644.82 1432.41 1652.94 1444.11C1661.35 1455.82 1674.13 1461.67 1691.25 1461.67Z" fill="#2074D5"/>
<path d="M1141.86 1915.5C1117.52 1924.81 1090.32 1929.45 1060.27 1929.45C1009.48 1929.45 971.018 1915.95 944.873 1888.94C918.729 1861.63 905.656 1821.72 905.656 1769.2C905.656 1717.29 919.33 1677.08 946.677 1648.57C974.024 1620.06 1012.49 1605.81 1062.07 1605.81C1088.52 1605.81 1113.61 1610 1137.35 1618.42V1671.53C1110.01 1665.53 1087.62 1662.52 1070.19 1662.52C1038.93 1662.52 1015.49 1670.78 999.868 1687.29C984.542 1703.79 976.878 1729 976.878 1762.9V1773.26C976.878 1806.86 984.391 1831.93 999.417 1848.43C1014.44 1864.63 1037.43 1872.74 1068.38 1872.74C1085.81 1872.74 1110.31 1869.28 1141.86 1862.39V1915.5Z" fill="#2074D5"/>
<path d="M1288.92 1919.1C1276.3 1924.2 1262.77 1926.75 1248.35 1926.75C1207.78 1926.75 1187.5 1904.1 1187.5 1858.79V1590.51H1253.31V1853.38C1253.31 1861.78 1254.66 1867.79 1257.36 1871.39C1260.37 1874.69 1265.18 1876.34 1271.79 1876.34C1276 1876.34 1281.71 1875.89 1288.92 1874.99V1919.1Z" fill="#2074D5"/>
<path d="M1487.35 1923.61L1481.04 1899.3C1454.29 1920 1426.35 1930.35 1397.19 1930.35C1376.76 1930.35 1360.83 1924.35 1349.4 1912.36C1337.99 1900.04 1332.28 1883.24 1332.28 1861.93V1693.59H1398.1V1843.48C1398.1 1867.79 1408.62 1879.94 1429.64 1879.94C1445.28 1879.94 1460.61 1875.14 1475.62 1865.53V1693.59H1541.44V1923.61H1487.35Z" fill="#2074D5"/>
<path d="M1604.38 1923.61V1590.51H1670.18V1711.14C1678.89 1703.64 1689.12 1697.78 1700.84 1693.59C1712.56 1689.08 1724.13 1686.83 1735.54 1686.83C1764.7 1686.83 1787.68 1697.49 1804.51 1718.79C1821.64 1740.1 1830.21 1768.9 1830.21 1805.22C1830.21 1828.92 1826.3 1850.07 1818.48 1868.69C1810.68 1887.29 1799.4 1902 1784.68 1912.8C1769.95 1923.3 1752.98 1928.56 1733.75 1928.56C1719.92 1928.56 1707 1926.16 1694.98 1921.35C1682.96 1916.55 1672.89 1909.8 1664.77 1901.09L1658.91 1923.61H1604.38ZM1714.36 1736.35C1698.73 1736.35 1684.01 1740.4 1670.18 1748.5V1866.88C1683.4 1874.99 1698.14 1879.04 1714.36 1879.04C1731.18 1879.04 1743.51 1873.33 1751.33 1861.93C1759.43 1850.53 1763.5 1832.52 1763.5 1807.92C1763.5 1783.01 1759.58 1764.86 1751.77 1753.45C1743.96 1742.04 1731.49 1736.35 1714.36 1736.35Z" fill="#2074D5"/>
<path d="M1979.52 1860.14C1979.52 1854.13 1977.72 1849.48 1974.11 1846.19C1970.8 1842.88 1963.89 1839.28 1953.37 1835.38L1918.22 1821.42C1899.88 1814.23 1886.66 1805.37 1878.54 1794.87C1870.43 1784.36 1866.38 1771.01 1866.38 1754.8C1866.38 1734.39 1874.49 1718.04 1890.71 1705.74C1907.24 1693.14 1929.18 1686.84 1956.53 1686.84C1981.77 1686.84 2005.06 1691.79 2026.4 1701.69V1745.35C2003.55 1738.45 1982.23 1735 1962.39 1735C1950.06 1735 1941.05 1736.5 1935.34 1739.49C1929.63 1742.5 1926.78 1747.3 1926.78 1753.9C1926.78 1759 1928.43 1763.21 1931.74 1766.51C1935.34 1769.51 1942.7 1773.26 1953.83 1777.76L1988.09 1791.71C2006.71 1799.21 2019.93 1807.92 2027.75 1817.83C2035.87 1827.73 2039.92 1840.63 2039.92 1856.53C2039.92 1878.74 2031.36 1896.75 2014.23 1910.55C1997.39 1924.05 1975.15 1930.81 1947.51 1930.81C1916.56 1930.81 1889.21 1924.66 1865.47 1912.36V1868.69C1895.22 1878 1922.42 1882.64 1947.06 1882.64C1968.7 1882.64 1979.52 1875.14 1979.52 1860.14Z" fill="#2074D5"/>
<path d="M1000.13 497.54C1000.13 478.451 992.68 460.143 979.418 446.643C966.156 433.144 948.169 425.561 929.414 425.561C938.701 425.561 947.896 423.7 956.476 420.082C965.056 416.465 972.852 411.163 979.418 404.479C985.985 397.795 991.194 389.861 994.747 381.127C998.302 372.394 1000.13 363.034 1000.13 353.582C1000.13 363.034 1001.96 372.394 1005.51 381.127C1009.07 389.861 1014.28 397.795 1020.84 404.479C1027.41 411.163 1035.2 416.465 1043.78 420.082C1052.36 423.7 1061.56 425.561 1070.85 425.561C1052.09 425.561 1034.1 433.144 1020.84 446.643C1007.58 460.143 1000.13 478.451 1000.13 497.54Z" stroke="#003181" stroke-width="8" stroke-linejoin="round"/>
<path d="M398.472 1061.88C398.406 1042.82 390.854 1024.56 377.469 1011.1C364.085 997.644 345.959 990.089 327.062 990.089C346.002 990.089 364.165 982.498 377.556 968.988C390.948 955.477 398.472 937.153 398.472 918.047C398.456 927.501 400.288 936.866 403.863 945.606C407.438 954.346 412.686 962.289 419.307 968.98C425.929 975.672 433.792 980.981 442.449 984.602C451.106 988.224 460.385 990.089 469.758 990.089C450.851 990.089 432.72 997.666 419.351 1011.15C405.983 1024.64 398.472 1042.93 398.472 1062V1061.88Z" stroke="#003181" stroke-width="8" stroke-linejoin="round"/>
<path d="M725.347 659.683C725.347 664.355 725.852 668.144 726.736 670.922C727.746 673.7 729.009 676.731 730.777 680.014C731.408 681.024 731.661 682.034 731.661 682.918C731.661 684.181 730.903 685.444 729.261 686.707L721.306 692.01C720.169 692.768 719.033 693.147 718.022 693.147C716.76 693.147 715.497 692.515 714.234 691.379C712.466 689.485 710.951 687.464 709.688 685.444C708.425 683.297 707.162 680.898 705.773 677.993C695.924 689.611 683.548 695.42 668.647 695.42C658.04 695.42 649.579 692.389 643.392 686.328C637.204 680.266 634.047 672.184 634.047 662.082C634.047 651.348 637.835 642.635 645.538 636.069C653.241 629.502 663.47 626.219 676.477 626.219C680.77 626.219 685.19 626.598 689.862 627.229C694.535 627.861 699.333 628.871 704.384 630.007V620.789C704.384 611.192 702.364 604.499 698.449 600.584C694.408 596.67 687.589 594.775 677.866 594.775C673.446 594.775 668.9 595.281 664.228 596.417C659.555 597.554 655.009 598.943 650.589 600.711C648.569 601.595 647.054 602.1 646.17 602.352C645.286 602.605 644.654 602.731 644.149 602.731C642.381 602.731 641.497 601.468 641.497 598.816V592.629C641.497 590.608 641.75 589.093 642.381 588.209C643.013 587.325 644.149 586.441 645.917 585.557C650.337 583.284 655.641 581.39 661.828 579.875C668.016 578.233 674.582 577.475 681.528 577.475C696.555 577.475 707.541 580.885 714.613 587.704C721.558 594.523 725.094 604.878 725.094 618.768V659.683H725.347ZM674.077 678.877C678.245 678.877 682.538 678.12 687.084 676.604C691.63 675.089 695.671 672.311 699.081 668.522C701.101 666.123 702.616 663.471 703.374 660.441C704.132 657.41 704.637 653.748 704.637 649.454V644.151C700.975 643.267 697.06 642.509 693.019 642.004C688.978 641.499 685.064 641.246 681.149 641.246C672.688 641.246 666.501 642.888 662.333 646.297C658.166 649.707 656.146 654.505 656.146 660.819C656.146 666.754 657.661 671.174 660.818 674.205C663.849 677.362 668.268 678.877 674.077 678.877ZM775.479 692.515C773.206 692.515 771.691 692.137 770.681 691.253C769.671 690.495 768.787 688.727 768.029 686.328L738.353 588.714C737.596 586.188 737.217 584.547 737.217 583.663C737.217 581.642 738.227 580.506 740.248 580.506H752.623C755.022 580.506 756.664 580.885 757.548 581.769C758.558 582.526 759.316 584.294 760.073 586.694L781.288 670.29L800.988 586.694C801.619 584.168 802.377 582.526 803.387 581.769C804.397 581.011 806.165 580.506 808.438 580.506H818.541C820.94 580.506 822.581 580.885 823.592 581.769C824.602 582.526 825.486 584.294 825.991 586.694L845.943 671.3L867.789 586.694C868.547 584.168 869.431 582.526 870.315 581.769C871.325 581.011 872.967 580.506 875.24 580.506H886.984C889.004 580.506 890.141 581.516 890.141 583.663C890.141 584.294 890.014 584.926 889.888 585.683C889.762 586.441 889.509 587.451 889.004 588.84L858.571 686.454C857.813 688.98 856.929 690.621 855.919 691.379C854.909 692.137 853.267 692.642 851.121 692.642H840.261C837.861 692.642 836.22 692.263 835.209 691.379C834.199 690.495 833.315 688.853 832.81 686.328L813.237 604.878L793.79 686.201C793.158 688.727 792.401 690.369 791.391 691.253C790.38 692.137 788.612 692.515 786.339 692.515H775.479ZM937.748 695.925C931.181 695.925 924.615 695.167 918.301 693.652C911.987 692.137 907.062 690.495 903.779 688.601C901.758 687.464 900.369 686.201 899.864 685.065C899.359 683.928 899.107 682.666 899.107 681.529V675.089C899.107 672.437 900.117 671.174 902.011 671.174C902.769 671.174 903.526 671.3 904.284 671.553C905.042 671.806 906.178 672.311 907.441 672.816C911.734 674.71 916.407 676.225 921.332 677.236C926.383 678.246 931.308 678.751 936.359 678.751C944.314 678.751 950.502 677.362 954.796 674.584C959.089 671.806 961.362 667.765 961.362 662.587C961.362 659.051 960.226 656.147 957.953 653.748C955.68 651.348 951.386 649.202 945.198 647.181L926.888 641.499C917.67 638.594 910.851 634.301 906.683 628.618C902.516 623.062 900.369 616.874 900.369 610.308C900.369 605.004 901.506 600.332 903.779 596.291C906.052 592.25 909.083 588.714 912.871 585.936C916.659 583.031 920.953 580.885 926.004 579.369C931.055 577.854 936.359 577.223 941.915 577.223C944.693 577.223 947.598 577.349 950.376 577.728C953.28 578.107 955.932 578.612 958.584 579.117C961.11 579.748 963.509 580.38 965.782 581.137C968.055 581.895 969.823 582.653 971.086 583.41C972.854 584.421 974.116 585.431 974.874 586.567C975.632 587.578 976.011 588.967 976.011 590.734V596.67C976.011 599.321 975 600.711 973.106 600.711C972.096 600.711 970.454 600.205 968.307 599.195C961.11 595.912 953.028 594.27 944.062 594.27C936.864 594.27 931.181 595.407 927.267 597.806C923.352 600.205 921.332 603.868 921.332 609.045C921.332 612.581 922.594 615.611 925.12 618.011C927.646 620.41 932.318 622.809 939.011 624.956L956.942 630.639C966.034 633.543 972.601 637.584 976.516 642.761C980.43 647.939 982.324 653.874 982.324 660.441C982.324 665.871 981.188 670.795 979.041 675.089C976.768 679.382 973.737 683.171 969.823 686.201C965.908 689.358 961.236 691.631 955.806 693.273C950.123 695.041 944.188 695.925 937.748 695.925Z" fill="#2074D5"/>
<path d="M961.615 757.296C920.069 787.981 859.707 804.271 807.807 804.271C735.07 804.271 669.531 777.374 620.03 732.671C616.115 729.135 619.651 724.337 624.323 727.115C677.866 758.18 743.909 776.995 812.226 776.995C858.318 776.995 908.956 767.398 955.553 747.698C962.498 744.541 968.434 752.244 961.615 757.296Z" fill="#2074D5"/>
<path d="M978.915 737.595C973.611 730.776 943.809 734.312 930.298 735.953C926.257 736.458 925.625 732.923 929.287 730.271C953.028 713.602 992.048 718.4 996.594 723.957C1001.14 729.639 995.331 768.66 973.106 787.349C969.697 790.253 966.413 788.738 967.929 784.95C972.98 772.448 984.219 744.288 978.915 737.595Z" fill="#2074D5"/>
<path d="M819.384 2208.6C819.384 2204.87 818.584 2201.47 816.984 2198.4C815.517 2195.33 812.784 2192.2 808.784 2189C804.784 2185.67 799.05 2181.93 791.584 2177.8C781.184 2171.93 773.784 2166.13 769.384 2160.4C765.117 2154.67 762.984 2147.33 762.984 2138.4C762.984 2130.93 764.917 2124.47 768.784 2119C772.784 2113.53 778.317 2109.27 785.384 2106.2C792.45 2103.13 800.584 2101.6 809.784 2101.6C818.184 2101.6 825.784 2102.67 832.584 2104.8C839.384 2106.8 845.717 2109.53 851.584 2113L841.784 2128.6C836.984 2125.53 831.917 2123 826.584 2121C821.384 2119 815.25 2118 808.184 2118C800.317 2118 793.984 2119.73 789.184 2123.2C784.384 2126.53 781.984 2130.93 781.984 2136.4C781.984 2141.33 783.65 2145.73 786.984 2149.6C790.45 2153.33 796.784 2157.67 805.984 2162.6C814.784 2167.27 821.517 2171.87 826.184 2176.4C830.984 2180.8 834.25 2185.47 835.984 2190.4C837.85 2195.33 838.784 2200.8 838.784 2206.8C838.784 2214.93 836.65 2222 832.384 2228C828.25 2233.87 822.45 2238.4 814.984 2241.6C807.517 2244.8 798.85 2246.4 788.984 2246.4C779.384 2246.4 770.717 2245.13 762.984 2242.6C755.25 2239.93 748.45 2236.27 742.584 2231.6L754.984 2216.2C759.517 2220.33 764.784 2223.67 770.784 2226.2C776.917 2228.6 783.65 2229.8 790.984 2229.8C799.65 2229.8 806.517 2227.93 811.584 2224.2C816.784 2220.33 819.384 2215.13 819.384 2208.6ZM939.196 2170.4C939.196 2165.33 937.663 2161.27 934.596 2158.2C931.663 2155 927.796 2153.4 922.996 2153.4C918.329 2153.4 913.196 2155.07 907.596 2158.4C902.129 2161.73 897.129 2166.93 892.596 2174C888.063 2181.07 884.796 2190.2 882.796 2201.4L875.396 2244H857.396L883.396 2096H901.396L889.796 2161.8C893.929 2154.47 899.329 2148.6 905.996 2144.2C912.796 2139.8 919.929 2137.6 927.396 2137.6C936.596 2137.6 943.863 2140.4 949.196 2146C954.663 2151.47 957.396 2158.2 957.396 2166.2C957.396 2169.53 956.996 2173.73 956.196 2178.8L944.796 2244H926.796L937.796 2181.8C938.463 2178.6 938.863 2176.27 938.996 2174.8C939.129 2173.2 939.196 2171.73 939.196 2170.4ZM1019.97 2246.4C1011.17 2246.4 1003.37 2244.53 996.57 2240.8C989.903 2236.93 984.636 2231.47 980.77 2224.4C977.036 2217.2 975.17 2208.73 975.17 2199C975.17 2187.93 977.436 2177.73 981.97 2168.4C986.636 2159.07 993.17 2151.6 1001.57 2146C1010.1 2140.4 1020.04 2137.6 1031.37 2137.6C1039.1 2137.6 1045.64 2139.07 1050.97 2142C1056.44 2144.93 1060.64 2148.73 1063.57 2153.4C1066.5 2158.07 1067.97 2163.07 1067.97 2168.4C1067.97 2175.73 1066.24 2181.8 1062.77 2186.6C1059.3 2191.4 1054.84 2195.13 1049.37 2197.8C1043.9 2200.33 1037.97 2202.13 1031.57 2203.2C1025.3 2204.27 1019.3 2204.8 1013.57 2204.8C1009.97 2204.8 1006.37 2204.67 1002.77 2204.4C999.303 2204 996.236 2203.6 993.57 2203.2C994.636 2212 997.77 2218.73 1002.97 2223.4C1008.17 2228.07 1014.84 2230.4 1022.97 2230.4C1029.64 2230.4 1035.57 2229.53 1040.77 2227.8C1045.97 2226.07 1050.37 2224.33 1053.97 2222.6L1055.57 2238.6C1051.57 2240.47 1046.5 2242.27 1040.37 2244C1034.24 2245.6 1027.44 2246.4 1019.97 2246.4ZM1029.97 2152.8C1023.7 2152.8 1018.04 2154.4 1012.97 2157.6C1007.9 2160.67 1003.7 2164.93 1000.37 2170.4C997.17 2175.73 995.036 2181.87 993.97 2188.8C997.036 2189.33 1000.1 2189.8 1003.17 2190.2C1006.37 2190.47 1009.84 2190.6 1013.57 2190.6C1024.77 2190.6 1033.64 2189.07 1040.17 2186C1046.7 2182.8 1049.97 2177.4 1049.97 2169.8C1049.97 2165.13 1048.1 2161.13 1044.37 2157.8C1040.77 2154.47 1035.97 2152.8 1029.97 2152.8ZM1094.89 2169.2C1095.02 2168.53 1095.09 2167.8 1095.09 2167C1095.22 2166.07 1095.29 2165.13 1095.29 2164.2C1095.29 2160.47 1094.22 2157.87 1092.09 2156.4C1089.95 2154.8 1087.15 2154 1083.69 2154L1089.89 2140C1096.95 2140 1102.35 2141.73 1106.09 2145.2C1109.95 2148.53 1111.89 2153.53 1111.89 2160.2V2164.2C1115.75 2154.73 1120.69 2147.93 1126.69 2143.8C1132.82 2139.67 1139.75 2137.6 1147.49 2137.6C1150.55 2137.6 1153.15 2137.87 1155.29 2138.4C1157.55 2138.8 1159.42 2139.33 1160.89 2140L1152.89 2157.6C1151.29 2156.93 1149.62 2156.47 1147.89 2156.2C1146.15 2155.93 1144.15 2155.8 1141.89 2155.8C1137.09 2155.8 1132.29 2157.53 1127.49 2161C1122.82 2164.33 1118.55 2169.93 1114.69 2177.8C1110.95 2185.67 1107.89 2196.47 1105.49 2210.2L1099.69 2244H1081.69L1094.89 2169.2ZM1191.14 2122.2C1187.41 2122.2 1184.54 2121.13 1182.54 2119C1180.67 2116.73 1179.74 2114.13 1179.74 2111.2C1179.74 2106.93 1181.07 2103.53 1183.74 2101C1186.41 2098.33 1189.74 2097 1193.74 2097C1197.47 2097 1200.27 2098.13 1202.14 2100.4C1204.14 2102.53 1205.14 2105.07 1205.14 2108C1205.14 2112.13 1203.81 2115.53 1201.14 2118.2C1198.47 2120.87 1195.14 2122.2 1191.14 2122.2ZM1177.74 2244H1159.74L1177.94 2140H1195.94L1177.74 2244ZM1307.31 2245C1300.11 2245 1294.58 2243.27 1290.71 2239.8C1286.98 2236.2 1285.11 2230.6 1285.11 2223C1281.25 2229.4 1276.38 2234.93 1270.51 2239.6C1264.65 2244.13 1257.85 2246.4 1250.11 2246.4C1243.45 2246.4 1237.18 2244.67 1231.31 2241.2C1225.45 2237.6 1220.71 2232.6 1217.11 2226.2C1213.65 2219.67 1211.91 2211.93 1211.91 2203C1211.91 2192.73 1213.45 2183.6 1216.51 2175.6C1219.58 2167.47 1223.65 2160.6 1228.71 2155C1233.91 2149.4 1239.58 2145.13 1245.71 2142.2C1251.98 2139.13 1258.31 2137.6 1264.71 2137.6C1271.78 2137.6 1277.85 2139.33 1282.91 2142.8C1288.11 2146.27 1292.11 2150.53 1294.91 2155.6L1305.51 2096H1323.51L1302.31 2215.8C1302.18 2216.47 1302.05 2217.27 1301.91 2218.2C1301.91 2219 1301.91 2219.87 1301.91 2220.8C1301.91 2224.53 1302.98 2227.2 1305.11 2228.8C1307.25 2230.27 1310.05 2231 1313.51 2231L1307.31 2245ZM1254.91 2230.4C1259.98 2230.4 1264.78 2228.8 1269.31 2225.6C1273.98 2222.4 1277.98 2217.93 1281.31 2212.2C1284.78 2206.33 1287.18 2199.47 1288.51 2191.6L1292.11 2171C1289.45 2165.4 1285.85 2161.07 1281.31 2158C1276.78 2154.8 1271.78 2153.2 1266.31 2153.2C1260.18 2153.2 1254.31 2155.13 1248.71 2159C1243.25 2162.73 1238.78 2168.13 1235.31 2175.2C1231.98 2182.13 1230.31 2190.53 1230.31 2200.4C1230.31 2206.93 1231.45 2212.47 1233.71 2217C1236.11 2221.4 1239.18 2224.73 1242.91 2227C1246.78 2229.27 1250.78 2230.4 1254.91 2230.4ZM1331.42 2203C1331.42 2190.07 1334.22 2178.73 1339.82 2169C1345.55 2159.13 1353.42 2151.47 1363.42 2146C1373.42 2140.4 1384.82 2137.6 1397.62 2137.6C1405.49 2137.6 1412.35 2138.4 1418.22 2140C1424.22 2141.6 1429.15 2143.2 1433.02 2144.8L1420.42 2215.8C1420.29 2216.47 1420.15 2217.27 1420.02 2218.2C1420.02 2219 1420.02 2219.87 1420.02 2220.8C1420.02 2224.53 1421.09 2227.2 1423.22 2228.8C1425.35 2230.27 1428.15 2231 1431.62 2231L1425.42 2245C1418.22 2245 1412.69 2243.27 1408.82 2239.8C1405.09 2236.2 1403.22 2230.67 1403.22 2223.2C1399.49 2229.6 1394.75 2235.07 1389.02 2239.6C1383.42 2244.13 1376.82 2246.4 1369.22 2246.4C1362.69 2246.4 1356.55 2244.67 1350.82 2241.2C1345.09 2237.6 1340.42 2232.6 1336.82 2226.2C1333.22 2219.67 1331.42 2211.93 1331.42 2203ZM1413.22 2155.4C1410.69 2154.6 1408.02 2154 1405.22 2153.6C1402.55 2153.07 1399.29 2152.8 1395.42 2152.8C1386.22 2152.8 1378.22 2154.87 1371.42 2159C1364.62 2163.13 1359.29 2168.87 1355.42 2176.2C1351.69 2183.4 1349.82 2191.6 1349.82 2200.8C1349.82 2207.2 1350.95 2212.6 1353.22 2217C1355.62 2221.4 1358.69 2224.73 1362.42 2227C1366.15 2229.27 1370.02 2230.4 1374.02 2230.4C1379.49 2230.4 1384.49 2228.53 1389.02 2224.8C1393.55 2221.07 1397.42 2215.87 1400.62 2209.2C1403.95 2202.53 1406.35 2194.93 1407.82 2186.4L1413.22 2155.4ZM1515.18 2153.4C1510.51 2153.4 1505.45 2155.13 1499.98 2158.6C1494.51 2162.07 1489.45 2167.47 1484.78 2174.8C1480.25 2182 1476.98 2191.27 1474.98 2202.6L1467.78 2244H1449.78L1467.98 2140H1485.38L1480.98 2164C1485.11 2156 1490.65 2149.6 1497.58 2144.8C1504.65 2140 1512.05 2137.6 1519.78 2137.6C1528.85 2137.6 1536.11 2140.4 1541.58 2146C1547.05 2151.47 1549.78 2158.2 1549.78 2166.2C1549.78 2169.53 1549.38 2173.73 1548.58 2178.8L1537.18 2244H1519.18L1530.18 2181.8C1530.85 2178.6 1531.25 2176.27 1531.38 2174.8C1531.51 2173.2 1531.58 2171.73 1531.58 2170.4C1531.58 2165.2 1530.05 2161.07 1526.98 2158C1524.05 2154.93 1520.11 2153.4 1515.18 2153.4ZM1701.31 2118.2C1691.58 2118.2 1682.78 2121.13 1674.91 2127C1667.05 2132.73 1660.78 2140.67 1656.11 2150.8C1651.45 2160.8 1649.11 2172.33 1649.11 2185.4C1649.11 2199.8 1652.65 2210.8 1659.71 2218.4C1666.78 2226 1675.78 2229.8 1686.71 2229.8C1692.98 2229.8 1698.51 2228.93 1703.31 2227.2C1708.25 2225.47 1713.05 2223.4 1717.71 2221L1720.91 2238.2C1715.98 2240.47 1710.51 2242.4 1704.51 2244C1698.51 2245.6 1691.71 2246.4 1684.11 2246.4C1673.18 2246.4 1663.58 2244.07 1655.31 2239.4C1647.18 2234.73 1640.85 2228 1636.31 2219.2C1631.78 2210.27 1629.51 2199.47 1629.51 2186.8C1629.51 2174.8 1631.25 2163.67 1634.71 2153.4C1638.31 2143 1643.38 2133.93 1649.91 2126.2C1656.45 2118.47 1664.18 2112.47 1673.11 2108.2C1682.18 2103.8 1692.11 2101.6 1702.91 2101.6C1710.78 2101.6 1717.71 2102.67 1723.71 2104.8C1729.71 2106.93 1734.71 2109.13 1738.71 2111.4L1730.11 2127C1726.11 2124.47 1721.85 2122.4 1717.31 2120.8C1712.91 2119.07 1707.58 2118.2 1701.31 2118.2ZM1781.57 2246.4C1771.71 2246.4 1763.17 2244.4 1755.97 2240.4C1748.77 2236.4 1743.17 2230.87 1739.17 2223.8C1735.31 2216.6 1733.37 2208.47 1733.37 2199.4C1733.37 2187.8 1735.71 2177.33 1740.37 2168C1745.17 2158.67 1751.84 2151.27 1760.37 2145.8C1768.91 2140.33 1778.97 2137.6 1790.57 2137.6C1800.44 2137.6 1808.97 2139.6 1816.17 2143.6C1823.37 2147.6 1828.91 2153.13 1832.77 2160.2C1836.77 2167.27 1838.77 2175.4 1838.77 2184.6C1838.77 2196.07 1836.44 2206.53 1831.77 2216C1827.11 2225.33 1820.44 2232.73 1811.77 2238.2C1803.24 2243.67 1793.17 2246.4 1781.57 2246.4ZM1782.17 2230.4C1790.17 2230.4 1796.97 2228.47 1802.57 2224.6C1808.31 2220.6 1812.71 2215.27 1815.77 2208.6C1818.84 2201.93 1820.37 2194.47 1820.37 2186.2C1820.37 2180.07 1819.17 2174.6 1816.77 2169.8C1814.37 2164.87 1810.91 2160.93 1806.37 2158C1801.84 2155.07 1796.37 2153.6 1789.97 2153.6C1782.11 2153.6 1775.31 2155.6 1769.57 2159.6C1763.84 2163.47 1759.44 2168.73 1756.37 2175.4C1753.31 2182.07 1751.77 2189.53 1751.77 2197.8C1751.77 2203.8 1752.97 2209.27 1755.37 2214.2C1757.77 2219.13 1761.24 2223.07 1765.77 2226C1770.31 2228.93 1775.77 2230.4 1782.17 2230.4ZM1875.29 2208C1875.02 2209.73 1874.82 2211.33 1874.69 2212.8C1874.56 2214.13 1874.49 2215.33 1874.49 2216.4C1874.49 2220.93 1875.82 2224.47 1878.49 2227C1881.29 2229.53 1884.96 2230.8 1889.49 2230.8C1891.76 2230.8 1894.02 2230.53 1896.29 2230C1898.56 2229.47 1900.62 2228.73 1902.49 2227.8L1904.29 2242.4C1901.89 2243.6 1899.09 2244.53 1895.89 2245.2C1892.69 2246 1889.22 2246.4 1885.49 2246.4C1877.49 2246.4 1870.62 2244.13 1864.89 2239.6C1859.29 2234.93 1856.49 2227.93 1856.49 2218.6C1856.49 2215.13 1856.76 2211.73 1857.29 2208.4L1876.89 2096H1894.89L1875.29 2208ZM1937.99 2208C1937.72 2209.73 1937.52 2211.33 1937.39 2212.8C1937.25 2214.13 1937.19 2215.33 1937.19 2216.4C1937.19 2220.93 1938.52 2224.47 1941.19 2227C1943.99 2229.53 1947.65 2230.8 1952.19 2230.8C1954.45 2230.8 1956.72 2230.53 1958.99 2230C1961.25 2229.47 1963.32 2228.73 1965.19 2227.8L1966.99 2242.4C1964.59 2243.6 1961.79 2244.53 1958.59 2245.2C1955.39 2246 1951.92 2246.4 1948.19 2246.4C1940.19 2246.4 1933.32 2244.13 1927.59 2239.6C1921.99 2234.93 1919.19 2227.93 1919.19 2218.6C1919.19 2215.13 1919.45 2211.73 1919.99 2208.4L1939.59 2096H1957.59L1937.99 2208ZM2020.56 2246.4C2011.76 2246.4 2003.96 2244.53 1997.16 2240.8C1990.49 2236.93 1985.22 2231.47 1981.36 2224.4C1977.62 2217.2 1975.76 2208.73 1975.76 2199C1975.76 2187.93 1978.02 2177.73 1982.56 2168.4C1987.22 2159.07 1993.76 2151.6 2002.16 2146C2010.69 2140.4 2020.62 2137.6 2031.96 2137.6C2039.69 2137.6 2046.22 2139.07 2051.56 2142C2057.02 2144.93 2061.22 2148.73 2064.16 2153.4C2067.09 2158.07 2068.56 2163.07 2068.56 2168.4C2068.56 2175.73 2066.82 2181.8 2063.36 2186.6C2059.89 2191.4 2055.42 2195.13 2049.96 2197.8C2044.49 2200.33 2038.56 2202.13 2032.16 2203.2C2025.89 2204.27 2019.89 2204.8 2014.16 2204.8C2010.56 2204.8 2006.96 2204.67 2003.36 2204.4C1999.89 2204 1996.82 2203.6 1994.16 2203.2C1995.22 2212 1998.36 2218.73 2003.56 2223.4C2008.76 2228.07 2015.42 2230.4 2023.56 2230.4C2030.22 2230.4 2036.16 2229.53 2041.36 2227.8C2046.56 2226.07 2050.96 2224.33 2054.56 2222.6L2056.16 2238.6C2052.16 2240.47 2047.09 2242.27 2040.96 2244C2034.82 2245.6 2028.02 2246.4 2020.56 2246.4ZM2030.56 2152.8C2024.29 2152.8 2018.62 2154.4 2013.56 2157.6C2008.49 2160.67 2004.29 2164.93 2000.96 2170.4C1997.76 2175.73 1995.62 2181.87 1994.56 2188.8C1997.62 2189.33 2000.69 2189.8 2003.76 2190.2C2006.96 2190.47 2010.42 2190.6 2014.16 2190.6C2025.36 2190.6 2034.22 2189.07 2040.76 2186C2047.29 2182.8 2050.56 2177.4 2050.56 2169.8C2050.56 2165.13 2048.69 2161.13 2044.96 2157.8C2041.36 2154.47 2036.56 2152.8 2030.56 2152.8ZM2145.27 2137.6C2153.14 2137.6 2160.07 2138.4 2166.07 2140C2172.07 2141.6 2177 2143.2 2180.87 2144.8L2163.47 2245.2C2161.87 2254.4 2159.4 2261.93 2156.07 2267.8C2152.87 2273.67 2149.07 2278.2 2144.67 2281.4C2140.4 2284.73 2135.87 2287.07 2131.07 2288.4C2126.27 2289.73 2121.54 2290.4 2116.87 2290.4C2107.8 2290.4 2100.07 2288.53 2093.67 2284.8C2087.4 2281.07 2082.27 2276.73 2078.27 2271.8L2092.27 2261.4C2098.8 2270.33 2107.4 2274.8 2118.07 2274.8C2124.74 2274.8 2130.6 2272.33 2135.67 2267.4C2140.74 2262.47 2144.34 2254.07 2146.47 2242.2L2149.87 2222.6C2146.14 2228.6 2141.47 2233.67 2135.87 2237.8C2130.4 2241.93 2124.2 2244 2117.27 2244C2110.87 2244 2104.74 2242.4 2098.87 2239.2C2093.14 2236 2088.4 2231.33 2084.67 2225.2C2081.07 2219.07 2079.27 2211.53 2079.27 2202.6C2079.27 2189.67 2082.14 2178.33 2087.87 2168.6C2093.6 2158.87 2101.47 2151.27 2111.47 2145.8C2121.47 2140.33 2132.74 2137.6 2145.27 2137.6ZM2097.67 2200.6C2097.67 2206.6 2098.8 2211.67 2101.07 2215.8C2103.47 2219.8 2106.54 2222.87 2110.27 2225C2114 2227 2117.94 2228 2122.07 2228C2127.14 2228 2131.94 2226.2 2136.47 2222.6C2141 2219 2144.94 2213.93 2148.27 2207.4C2151.74 2200.87 2154.27 2193.2 2155.87 2184.4L2161.07 2155.4C2158.54 2154.6 2155.87 2154 2153.07 2153.6C2150.27 2153.07 2147 2152.8 2143.27 2152.8C2134.34 2152.8 2126.4 2154.93 2119.47 2159.2C2112.67 2163.33 2107.34 2169 2103.47 2176.2C2099.6 2183.4 2097.67 2191.53 2097.67 2200.6ZM2239.5 2246.4C2230.7 2246.4 2222.9 2244.53 2216.1 2240.8C2209.43 2236.93 2204.17 2231.47 2200.3 2224.4C2196.57 2217.2 2194.7 2208.73 2194.7 2199C2194.7 2187.93 2196.97 2177.73 2201.5 2168.4C2206.17 2159.07 2212.7 2151.6 2221.1 2146C2229.63 2140.4 2239.57 2137.6 2250.9 2137.6C2258.63 2137.6 2265.17 2139.07 2270.5 2142C2275.97 2144.93 2280.17 2148.73 2283.1 2153.4C2286.03 2158.07 2287.5 2163.07 2287.5 2168.4C2287.5 2175.73 2285.77 2181.8 2282.3 2186.6C2278.83 2191.4 2274.37 2195.13 2268.9 2197.8C2263.43 2200.33 2257.5 2202.13 2251.1 2203.2C2244.83 2204.27 2238.83 2204.8 2233.1 2204.8C2229.5 2204.8 2225.9 2204.67 2222.3 2204.4C2218.83 2204 2215.77 2203.6 2213.1 2203.2C2214.17 2212 2217.3 2218.73 2222.5 2223.4C2227.7 2228.07 2234.37 2230.4 2242.5 2230.4C2249.17 2230.4 2255.1 2229.53 2260.3 2227.8C2265.5 2226.07 2269.9 2224.33 2273.5 2222.6L2275.1 2238.6C2271.1 2240.47 2266.03 2242.27 2259.9 2244C2253.77 2245.6 2246.97 2246.4 2239.5 2246.4ZM2249.5 2152.8C2243.23 2152.8 2237.57 2154.4 2232.5 2157.6C2227.43 2160.67 2223.23 2164.93 2219.9 2170.4C2216.7 2175.73 2214.57 2181.87 2213.5 2188.8C2216.57 2189.33 2219.63 2189.8 2222.7 2190.2C2225.9 2190.47 2229.37 2190.6 2233.1 2190.6C2244.3 2190.6 2253.17 2189.07 2259.7 2186C2266.23 2182.8 2269.5 2177.4 2269.5 2169.8C2269.5 2165.13 2267.63 2161.13 2263.9 2157.8C2260.3 2154.47 2255.5 2152.8 2249.5 2152.8Z" fill="#003181"/>
</g>
<defs>
<clipPath id="clip0_1085_1210">
<rect width="2525.58" height="2525.58" fill="white"/>
</clipPath>
</defs>
</svg>
